<svg xmlns="http://www.w3.org/2000/svg" xmlns:xlink="http://www.w3.org/1999/xlink" viewBox="0 0 486.82 620.98"><defs><style>.cls-1,.cls-4{fill:none;}.cls-2{clip-path:url(#clip-path);}.cls-3{fill:#fff;}.cls-4{stroke:#231f20;stroke-width:5.35px;}.cls-4,.cls-5,.cls-6{stroke-miterlimit:10;}.cls-5,.cls-6{stroke:#000;}.cls-6{stroke-width:8px;}</style><clipPath id="clip-path" transform="translate(0 -0.01)"><rect class="cls-1" width="486.82" height="621"/></clipPath></defs><title>Character Sheet Icon</title><g id="Layer_2" data-name="Layer 2"><g id="Layer_1-2" data-name="Layer 1"><g id="Sheet"><g class="cls-2"><g class="cls-2"><path class="cls-3" d="M339.7,2.78H24.07A21.39,21.39,0,0,0,2.68,24.18V596.91a21.38,21.38,0,0,0,21.39,21.4H462.74a21.39,21.39,0,0,0,21.4-21.4V147.38Zm23.06,142a20.43,20.43,0,0,1-20.44-20.43V6.48l138,138.28Z" transform="translate(0 -0.01)"/><path class="cls-4" d="M339.7,2.78H24.07A21.39,21.39,0,0,0,2.68,24.18V596.91a21.38,21.38,0,0,0,21.39,21.4H462.74a21.39,21.39,0,0,0,21.4-21.4V147.38Zm23.06,142a20.43,20.43,0,0,1-20.44-20.43V6.48l138,138.28Z" transform="translate(0 -0.01)"/><path class="cls-3" d="M480.29,144.76H362.76a20.43,20.43,0,0,1-20.44-20.43V6.48Z" transform="translate(0 -0.01)"/><path class="cls-4" d="M480.29,144.76H362.76a20.43,20.43,0,0,1-20.44-20.43V6.48Z" transform="translate(0 -0.01)"/></g></g></g><path class="cls-5" d="M296.16,439.13a126.56,126.56,0,0,1-48.34,9.73q-27.73,0-50.6-10.28a119,119,0,0,1-39.5-28.44Q141.08,392,131.9,366.65t-9.18-55q0-29.73,9.18-55.05t25.82-43.49a118.64,118.64,0,0,1,39.68-28.44q23-10.27,50.42-10.28a124.11,124.11,0,0,1,44.53,8.26,94.42,94.42,0,0,1,36.91,25.14l-4.86,5.87a85.41,85.41,0,0,0-16.46-14.13,107.24,107.24,0,0,0-40-16,116,116,0,0,0-20.1-1.84q-26.34,0-48,10.1a111,111,0,0,0-37.08,27.7,127.19,127.19,0,0,0-23.91,41.29,149.47,149.47,0,0,0-8.49,50.83,152.11,152.11,0,0,0,8.32,50.83,124.53,124.53,0,0,0,23.74,41.29,110.84,110.84,0,0,0,37.08,27.71q21.65,10.1,48.34,10.09A116.13,116.13,0,0,0,293,432.16,89.93,89.93,0,0,0,330,404.09l5.54,5.5A94.94,94.94,0,0,1,296.16,439.13Z" transform="translate(0 -0.01)"/><path class="cls-6" d="M383.93,537.07h-279A11.81,11.81,0,0,1,93.09,526c-3-57.1,74.28-67.72,93.85-72.6a11.79,11.79,0,0,1,8.3,1c13.16,6.88,55.14,24.69,99.3.22a12,12,0,0,1,8.65-1.21c19.72,4.88,96.47,15.58,92.57,72.73A11.83,11.83,0,0,1,383.93,537.07Z" transform="translate(0 -0.01)"/><line class="cls-6" x1="299" y1="451.99" x2="298" y2="434.99"/><line class="cls-6" x1="191" y1="451.99" x2="191" y2="433.99"/></g></g></svg>