<svg xmlns="http://www.w3.org/2000/svg" viewBox="0 0 655.9 411.23"><defs><style>.cls-1,.cls-5{fill:#fff;}.cls-1,.cls-2,.cls-3,.cls-4,.cls-5,.cls-6{stroke:#fff;stroke-miterlimit:10;}.cls-2{fill:#4f5f55;}.cls-2,.cls-3,.cls-4,.cls-5,.cls-6{stroke-width:8px;}.cls-3{fill:#40294b;}.cls-4{fill:#593939;}.cls-6{fill:none;}</style></defs><title>Party Icon White</title><g id="Layer_2" data-name="Layer 2"><g id="Layer_1-2" data-name="Layer 1"><path class="cls-1" d="M229.61,246.34c-.31-1.11-.48-2.25-.68-3.37A91.53,91.53,0,0,1,204,258.32a116.17,116.17,0,0,1-45.23,9.36q-26.68,0-48.34-10.1a110.88,110.88,0,0,1-37.08-27.7,124.88,124.88,0,0,1-23.74-41.29,152.36,152.36,0,0,1-8.31-50.83,149.19,149.19,0,0,1,8.49-50.83A126.91,126.91,0,0,1,73.74,45.64a111,111,0,0,1,37.08-27.71q21.65-10.08,48-10.09a115.9,115.9,0,0,1,20.1,1.83,106.71,106.71,0,0,1,20.62,5.88,105.18,105.18,0,0,1,19.41,10.09A85.41,85.41,0,0,1,235.4,39.77l4.85-5.87a94.27,94.27,0,0,0-36.9-25.14A124,124,0,0,0,158.81.5q-27.37,0-50.42,10.28A118.74,118.74,0,0,0,68.71,39.22,128.11,128.11,0,0,0,42.9,82.71Q33.71,108,33.71,137.76t9.19,55.05A128.11,128.11,0,0,0,68.71,236.3a119.17,119.17,0,0,0,39.51,28.44Q131.1,275,158.81,275a126.57,126.57,0,0,0,48.35-9.73,96.9,96.9,0,0,0,24.54-14.48A15.4,15.4,0,0,1,229.61,246.34Z"/><path class="cls-2" d="M294.93,363.23h-279A11.8,11.8,0,0,1,4.09,352.14C1,295,78.37,284.41,97.93,279.53a11.73,11.73,0,0,1,8.3,1c13.17,6.87,55.14,24.69,99.31.22a12.05,12.05,0,0,1,8.64-1.21c7.08,1.68,41.82,8.6,49.67,12.63s15.15,11,15.06,10.62,1,7.25,1.17,11.89c.33,8.1-.83,18,.67,28.59C281.62,349.42,301.12,363.23,294.93,363.23Z"/><line class="cls-2" x1="210" y1="278.16" x2="209" y2="261.16"/><line class="cls-2" x1="102" y1="278.16" x2="102" y2="260.16"/><path class="cls-1" d="M398.1,63a13.29,13.29,0,0,1,6.44,4.71,121.31,121.31,0,0,1,14.2-20.06,111,111,0,0,1,37.08-27.71q21.65-10.08,48-10.09a115.9,115.9,0,0,1,20.1,1.83,106.71,106.71,0,0,1,20.62,5.88,105.18,105.18,0,0,1,19.41,10.09A85.41,85.41,0,0,1,580.4,41.77l4.85-5.87a94.27,94.27,0,0,0-36.9-25.14A124,124,0,0,0,503.81,2.5q-27.37,0-50.42,10.28a118.74,118.74,0,0,0-39.68,28.44,121.14,121.14,0,0,0-15.79,21.72Z"/><path class="cls-1" d="M586,232.24A89.94,89.94,0,0,1,549,260.32a116.17,116.17,0,0,1-45.23,9.36q-26.68,0-48.34-10.1a115.76,115.76,0,0,1-13.08-7.14,62.65,62.65,0,0,1-4.08,6.34,123.33,123.33,0,0,0,14.91,8Q476.1,277,503.81,277a126.57,126.57,0,0,0,48.35-9.73,95,95,0,0,0,39.33-29.54Z"/><path class="cls-3" d="M559.16,281.55a11.87,11.87,0,0,0-8.61,1.21c-44.17,24.49-86.16,6.66-99.32-.22a11.86,11.86,0,0,0-8.35-1c-7.25,1.8-15.8,2.14-31.88,7.61l-7,5c-9.64,7.5-6.47,7.92-17,14-.23.13.68,37.42.46,37.51-.65,1.65-17.13-6.07-19.43-6.07,0,0,0,5,0,5-1.88,0-3.72-4.38-5-3-9.06,9.68-14.78-3.79-13.91,12.55a11.8,11.8,0,0,0,11.83,11.09h279a11.82,11.82,0,0,0,11.82-10.94C655.66,297.11,578.85,286.43,559.16,281.55Z"/><line class="cls-4" x1="555" y1="280.16" x2="554" y2="263.16"/><line class="cls-4" x1="447" y1="280.16" x2="447" y2="262.16"/><path class="cls-1" d="M419,274.25A89.93,89.93,0,0,1,382,302.32a116.13,116.13,0,0,1-45.22,9.36q-26.7,0-48.34-10.09a110.84,110.84,0,0,1-37.08-27.71,124.53,124.53,0,0,1-23.74-41.29,152.11,152.11,0,0,1-8.32-50.83,149.47,149.47,0,0,1,8.49-50.83,127.19,127.19,0,0,1,23.91-41.29,111,111,0,0,1,37.08-27.7q21.66-10.09,48-10.1a116,116,0,0,1,20.1,1.84,107.24,107.24,0,0,1,40,16A85.41,85.41,0,0,1,413.4,83.77l4.86-5.87a94.42,94.42,0,0,0-36.91-25.14,124.11,124.11,0,0,0-44.53-8.26q-27.39,0-50.42,10.28a118.64,118.64,0,0,0-39.68,28.44q-16.64,18.16-25.82,43.49t-9.18,55.05q0,29.73,9.18,55.05t25.82,43.49A118.1,118.1,0,0,0,280,305.73c2,1.06,4.11,2.06,6.22,3Q309.1,319,336.82,319a126.56,126.56,0,0,0,48.34-9.73q1-.42,2-.87a94.6,94.6,0,0,0,37.29-28.67Z"/><path class="cls-5" d="M484.76,396.29a11.83,11.83,0,0,1-11.83,10.94h-279a11.81,11.81,0,0,1-11.84-11.09c-3-57.1,74.28-67.72,93.85-72.6a11.36,11.36,0,0,1,4.06-.27,12,12,0,0,1,4.24,1.28c13.16,6.88,55.14,24.69,99.3.22a12.07,12.07,0,0,1,4.56-1.46,11.52,11.52,0,0,1,4.09.25C411.91,328.44,488.66,339.14,484.76,396.29Z"/><path class="cls-6" d="M388.1,323.31a12.07,12.07,0,0,0-4.56,1.46c-44.16,24.47-86.14,6.66-99.3-.22a12,12,0,0,0-4.24-1.28V301.73c2,1.06,15,7.43,22.22,9,7.72,1.69,16.29,4.26,34.78,4.42,16.18.14,31-2,48.16-9.87.67-.31,1.37,3.43,2,3.13Z"/><line class="cls-6" x1="387.2" y1="308.42" x2="387" y2="305.16"/><line class="cls-6" x1="389" y1="338.16" x2="388.1" y2="323.31"/><line class="cls-6" x1="280" y1="305.73" x2="280" y2="300.16"/><line class="cls-6" x1="280" y1="340.16" x2="280" y2="323.27"/></g></g></svg>