<svg xmlns="http://www.w3.org/2000/svg" viewBox="0 0 1243.58 377.09"><defs><style>.cls-1,.cls-2{stroke:#000;stroke-miterlimit:10;}.cls-2{stroke-width:8px;}</style></defs><title>CSheet Logo Black</title><g id="Layer_2" data-name="Layer 2"><g id="Layer_1-2" data-name="Layer 1"><path class="cls-1" d="M207.16,275.15a126.57,126.57,0,0,1-48.35,9.73q-27.72,0-50.59-10.28a119,119,0,0,1-39.51-28.44A128.11,128.11,0,0,1,42.9,202.67q-9.19-25.32-9.19-55T42.9,92.57A128.11,128.11,0,0,1,68.71,49.08a118.74,118.74,0,0,1,39.68-28.44q23-10.28,50.42-10.28a124.2,124.2,0,0,1,44.54,8.26,94.27,94.27,0,0,1,36.9,25.14l-4.85,5.87A85.41,85.41,0,0,0,218.94,35.5a107.37,107.37,0,0,0-40-16,115.94,115.94,0,0,0-20.1-1.84q-26.34,0-48,10.09A111.18,111.18,0,0,0,73.74,55.5,127,127,0,0,0,49.83,96.79a149.23,149.23,0,0,0-8.49,50.83,152.36,152.36,0,0,0,8.31,50.83,124.88,124.88,0,0,0,23.74,41.29,111,111,0,0,0,37.08,27.71q21.66,10.1,48.34,10.09A116.17,116.17,0,0,0,204,268.18,90,90,0,0,0,241,240.11l5.54,5.5A95,95,0,0,1,207.16,275.15Z"/><path class="cls-2" d="M294.93,373.09h-279A11.8,11.8,0,0,1,4.09,362c-3-57.1,74.28-67.72,93.84-72.6a11.72,11.72,0,0,1,8.3,1c13.17,6.88,55.14,24.69,99.31.22a12,12,0,0,1,8.64-1.21c19.73,4.88,96.48,15.58,92.57,72.73A11.81,11.81,0,0,1,294.93,373.09Z"/><line class="cls-2" x1="210" y1="288.02" x2="209" y2="271.02"/><line class="cls-2" x1="102" y1="288.02" x2="102" y2="270.02"/><path class="cls-1" d="M490.34,215.56a69.46,69.46,0,0,1-6.06,29.55,65.64,65.64,0,0,1-39.86,35.6,89.63,89.63,0,0,1-28.59,4.58q-22.87,0-41.76-8.62a89,89,0,0,1-31.36-23.31l5.89-5.5a85,85,0,0,0,30.67,22.57A90.75,90.75,0,0,0,415.49,278a77.3,77.3,0,0,0,25.64-4.22,67.33,67.33,0,0,0,21.49-12.11,55.89,55.89,0,0,0,14.72-19.45q5.37-11.56,5.38-26.61t-5.9-25.32a60.56,60.56,0,0,0-15.24-17.62,90.44,90.44,0,0,0-21.32-12.29q-12-5-24.08-9-15.26-5.15-27.9-10.83a83.5,83.5,0,0,1-21.83-13.95,56.74,56.74,0,0,1-14.21-19.81q-5-11.56-5-28.08,0-16.14,6.06-28.81a62.09,62.09,0,0,1,16.46-21.28,74.47,74.47,0,0,1,24.09-13.22,90.65,90.65,0,0,1,28.93-4.58,86,86,0,0,1,35.52,7.52,70.42,70.42,0,0,1,27.55,21.47l-5.89,5.5a66,66,0,0,0-24.77-20,75.4,75.4,0,0,0-32.75-7.15A82.66,82.66,0,0,0,398,21.79,67.32,67.32,0,0,0,376.33,33a56.45,56.45,0,0,0-15.6,18.9q-5.89,11.38-5.89,26.79,0,15.06,5.2,25.51A55.16,55.16,0,0,0,373.9,122a78.69,78.69,0,0,0,19.58,12.11q10.92,4.77,22.35,8.81,15.6,5.5,29.11,11.19a102.18,102.18,0,0,1,23.74,13.76,57,57,0,0,1,15.94,19.64Q490.34,199,490.34,215.56Z"/><path class="cls-1" d="M571.08,153.54A71,71,0,0,1,595.69,117a61.9,61.9,0,0,1,38.12-13q16.62,0,27.72,6.24a49.43,49.43,0,0,1,17.67,16.52,69.75,69.75,0,0,1,9.36,23.12,123.1,123.1,0,0,1,2.77,26.06V278h-7.62V176.66a127.29,127.29,0,0,0-2.08-22,62.27,62.27,0,0,0-7.8-21.29,49.61,49.61,0,0,0-15.42-16q-9.7-6.42-24.6-6.42A55.58,55.58,0,0,0,609,116.66,58.23,58.23,0,0,0,588.93,133a82.39,82.39,0,0,0-13.52,25.87q-5,15.24-5,34.68V278h-7.63V.5h7.63v153Z"/><path class="cls-1" d="M765.83,191.71a109.17,109.17,0,0,0,4.34,30.46,83.55,83.55,0,0,0,13.16,27,67.49,67.49,0,0,0,22.36,19.27q13.51,7.35,31.88,7.34,18.7,0,33.27-7.89a75,75,0,0,0,25.29-22.94l5.55,5.14q-11.79,16.15-27.55,24.59t-36.56,8.44a74.18,74.18,0,0,1-57.35-25.69,84.87,84.87,0,0,1-16.29-29,113.77,113.77,0,0,1-5.72-36.7,102,102,0,0,1,5.9-35.23,88,88,0,0,1,16.15-27.9,71.75,71.75,0,0,1,24.15-18.16A70.34,70.34,0,0,1,834.28,104q18.75,0,32.65,7A69.28,69.28,0,0,1,890,129.32a77.3,77.3,0,0,1,13.72,25.87,98.86,98.86,0,0,1,4.51,29.54v7Zm134.81-7a92,92,0,0,0-5.37-30.09,72.43,72.43,0,0,0-13.69-23.3,59.69,59.69,0,0,0-20.79-15,66.73,66.73,0,0,0-27-5.32q-18,0-30.85,7.89a70.16,70.16,0,0,0-21,19.45,84,84,0,0,0-12,24.22q-3.81,12.66-3.81,22.2Z"/><path class="cls-1" d="M970.64,191.71A109.53,109.53,0,0,0,975,222.17a83.77,83.77,0,0,0,13.17,27,67.35,67.35,0,0,0,22.35,19.27q13.52,7.35,31.88,7.34,18.72,0,33.27-7.89a74.92,74.92,0,0,0,25.3-22.94l5.55,5.14q-11.79,16.15-27.55,24.59t-36.57,8.44A74.22,74.22,0,0,1,985,257.4a85,85,0,0,1-16.29-29,113.77,113.77,0,0,1-5.71-36.7,101.75,101.75,0,0,1,5.9-35.23,87.78,87.78,0,0,1,16.15-27.9,71.65,71.65,0,0,1,24.15-18.16,70.27,70.27,0,0,1,29.86-6.43q18.76,0,32.65,7a69.28,69.28,0,0,1,23.1,18.35,77.13,77.13,0,0,1,13.72,25.87,98.87,98.87,0,0,1,4.52,29.54v7Zm134.81-7a92,92,0,0,0-5.38-30.09,72.4,72.4,0,0,0-13.68-23.3,59.64,59.64,0,0,0-20.8-15,66.73,66.73,0,0,0-27-5.32q-18,0-30.84,7.89a70.31,70.31,0,0,0-21,19.45,83.94,83.94,0,0,0-12,24.22Q971,175.19,971,184.73Z"/><path class="cls-1" d="M1233.32,281.26a55.47,55.47,0,0,1-10.74,1.1q-18.72,0-26.69-11.2t-8-28.07v-127h-34.65v-7h34.31V59.59h7.62v49.54H1242v7H1195.2v127q0,17.25,8,24.77t21.14,7.52a45.78,45.78,0,0,0,17.67-3.3l1,6.24A47.15,47.15,0,0,1,1233.32,281.26Z"/></g></g></svg>