<svg xmlns="http://www.w3.org/2000/svg" viewBox="0 0 310.9 367.23"><defs><style>.cls-1,.cls-2{stroke:#000;stroke-miterlimit:10;}.cls-2{fill:#244f56;stroke-width:8px;}</style></defs><title>Asset 34</title><g id="Layer_2" data-name="Layer 2"><g id="Layer_1-2" data-name="Layer 1"><path class="cls-1" d="M207.16,265.29A126.57,126.57,0,0,1,158.81,275q-27.72,0-50.59-10.28A119.17,119.17,0,0,1,68.71,236.3,128.11,128.11,0,0,1,42.9,192.81q-9.19-25.32-9.19-55.05t9.19-55A128.11,128.11,0,0,1,68.71,39.22a118.74,118.74,0,0,1,39.68-28.44Q131.43.51,158.81.5a124,124,0,0,1,44.54,8.26,94.27,94.27,0,0,1,36.9,25.14l-4.85,5.87a85.41,85.41,0,0,0-16.46-14.13,105.18,105.18,0,0,0-19.41-10.09,106.71,106.71,0,0,0-20.62-5.88,115.9,115.9,0,0,0-20.1-1.83q-26.34,0-48,10.09A111,111,0,0,0,73.74,45.64,126.91,126.91,0,0,0,49.83,86.93a149.19,149.19,0,0,0-8.49,50.83,152.36,152.36,0,0,0,8.31,50.83,124.88,124.88,0,0,0,23.74,41.29,110.88,110.88,0,0,0,37.08,27.7q21.66,10.11,48.34,10.1A116.17,116.17,0,0,0,204,258.32,89.94,89.94,0,0,0,241,230.24l5.54,5.51A95,95,0,0,1,207.16,265.29Z"/><path class="cls-2" d="M294.93,363.23h-279A11.8,11.8,0,0,1,4.09,352.14C1,295,78.37,284.41,97.93,279.53a11.73,11.73,0,0,1,8.3,1c13.17,6.87,55.14,24.69,99.31.22a11.9,11.9,0,0,1,8.64-1.21c19.73,4.87,96.48,15.57,92.57,72.73A11.82,11.82,0,0,1,294.93,363.23Z"/><line class="cls-2" x1="210" y1="278.16" x2="209" y2="261.16"/><line class="cls-2" x1="102" y1="278.16" x2="102" y2="260.16"/></g></g></svg>