<svg xmlns="http://www.w3.org/2000/svg" viewBox="0 0 91 116.08"><defs><style>.cls-1{fill:none;stroke:#231f20;stroke-miterlimit:10;}</style></defs><title>characterSheetIcon2</title><g id="Layer_2" data-name="Layer 2"><g id="Layer_2-2" data-name="Layer 2"><path class="cls-1" d="M63.5.52H4.5a4,4,0,0,0-4,4V111.58a4,4,0,0,0,4,4h82a4,4,0,0,0,4-4v-84Zm4.31,26.54A3.82,3.82,0,0,1,64,23.24v-22L89.78,27.06Z"/></g><g id="Layer_1-2" data-name="Layer 1"><line class="cls-1" x1="18.5" y1="90.52" x2="72.5" y2="90.52"/><path class="cls-1" d="M45.67,78.52h0a22.49,22.49,0,0,1-20.26-12.7,1.86,1.86,0,0,1-.1-.2,24.79,24.79,0,0,1-.94-2.31s0-.08,0-.13a23.74,23.74,0,0,1-.66-2.41c0-.11-.05-.23-.07-.34-.08-.38-.14-.77-.2-1.15A23.38,23.38,0,0,1,23.17,56h0a22.5,22.5,0,0,1,22.5-22.5h0A22.5,22.5,0,0,1,68.17,56h0A22.5,22.5,0,0,1,45.67,78.52Z"/><path class="cls-1" d="M57.47,75.15c1.12.86,17.65,2.1,15,15.37"/><path class="cls-1" d="M33.81,75.31c-1.12.87-17.65,2.1-15,15.38"/></g></g></svg>