<svg xmlns="http://www.w3.org/2000/svg" xmlns:xlink="http://www.w3.org/1999/xlink" viewBox="0 0 486.82 620.98"><defs><style>.cls-1,.cls-4{fill:none;}.cls-2{clip-path:url(#clip-path);}.cls-3{fill:#fff;}.cls-4{stroke:#231f20;stroke-width:5.35px;}.cls-4,.cls-5,.cls-6{stroke-miterlimit:10;}.cls-5,.cls-6{stroke:#000;}.cls-6{stroke-width:8px;}</style><clipPath id="clip-path" transform="translate(0 -0.01)"><rect class="cls-1" width="486.82" height="621"/></clipPath></defs><title>CSheet Character Sheet</title><g id="Layer_2" data-name="Layer 2"><g id="Layer_1-2" data-name="Layer 1"><g id="Sheet"><g class="cls-2"><g class="cls-2"><path class="cls-3" d="M339.7,2.78H24.07A21.39,21.39,0,0,0,2.68,24.18V596.91a21.38,21.38,0,0,0,21.39,21.4H462.74a21.39,21.39,0,0,0,21.4-21.4V147.38Zm23.06,142a20.43,20.43,0,0,1-20.44-20.43V6.48l138,138.28Z" transform="translate(0 -0.01)"/><path class="cls-4" d="M339.7,2.78H24.07A21.39,21.39,0,0,0,2.68,24.18V596.91a21.38,21.38,0,0,0,21.39,21.4H462.74a21.39,21.39,0,0,0,21.4-21.4V147.38Zm23.06,142a20.43,20.43,0,0,1-20.44-20.43V6.48l138,138.28Z" transform="translate(0 -0.01)"/><path class="cls-3" d="M480.29,144.76H362.76a20.43,20.43,0,0,1-20.44-20.43V6.48Z" transform="translate(0 -0.01)"/><path class="cls-4" d="M480.29,144.76H362.76a20.43,20.43,0,0,1-20.44-20.43V6.48Z" transform="translate(0 -0.01)"/></g></g></g><path class="cls-5" d="M295.16,427.13a126.56,126.56,0,0,1-48.34,9.73q-27.73,0-50.6-10.28a119,119,0,0,1-39.5-28.44Q140.08,380,130.9,354.65t-9.18-55q0-29.73,9.18-55.05t25.82-43.49a118.64,118.64,0,0,1,39.68-28.44q23-10.27,50.42-10.28a124.11,124.11,0,0,1,44.53,8.26,94.42,94.42,0,0,1,36.91,25.14l-4.86,5.87a85.41,85.41,0,0,0-16.46-14.13,107.24,107.24,0,0,0-40-16,116,116,0,0,0-20.1-1.84q-26.34,0-48,10.1a111,111,0,0,0-37.08,27.7,127.19,127.19,0,0,0-23.91,41.29,149.47,149.47,0,0,0-8.49,50.83,152.11,152.11,0,0,0,8.32,50.83,124.68,124.68,0,0,0,23.73,41.29,111,111,0,0,0,37.08,27.71q21.66,10.1,48.35,10.09A116.13,116.13,0,0,0,292,420.16,89.93,89.93,0,0,0,329,392.09l5.54,5.5A94.94,94.94,0,0,1,295.16,427.13Z" transform="translate(0 -0.01)"/><path class="cls-6" d="M393.12,525.07H93.6C77.91,451.69,182.86,444.81,190,440c0,0,53,34,108,0C305.09,444.78,409.71,451.62,393.12,525.07Z" transform="translate(0 -0.01)"/><line class="cls-6" x1="298" y1="439.99" x2="297" y2="422.99"/><line class="cls-6" x1="190" y1="439.99" x2="190" y2="421.99"/></g></g></svg>