<svg xmlns="http://www.w3.org/2000/svg" xmlns:xlink="http://www.w3.org/1999/xlink" viewBox="0 0 486.82 620.98"><defs><style>.cls-1,.cls-4,.cls-7{fill:none;}.cls-2{clip-path:url(#clip-path);}.cls-3{fill:#fff;}.cls-4{stroke:#373535;stroke-width:5.35px;}.cls-4,.cls-6,.cls-7{stroke-miterlimit:10;}.cls-5{font-size:367px;font-family:AvenirNext-UltraLight, Avenir Next;letter-spacing:0.02em;}.cls-6{fill:#333;}.cls-6,.cls-7{stroke:#000;stroke-width:8px;}</style><clipPath id="clip-path" transform="translate(0 -0.01)"><rect class="cls-1" width="486.82" height="621"/></clipPath></defs><title>cSheet Icon</title><g id="Layer_2" data-name="Layer 2"><g id="Layer_1-2" data-name="Layer 1"><g id="Sheet"><g class="cls-2"><g class="cls-2"><path class="cls-3" d="M339.7,2.78H24.07A21.39,21.39,0,0,0,2.68,24.18V596.91a21.38,21.38,0,0,0,21.39,21.4H462.74a21.39,21.39,0,0,0,21.4-21.4V147.38Zm23.06,142a20.43,20.43,0,0,1-20.44-20.43V6.48l138,138.28Z" transform="translate(0 -0.01)"/><path class="cls-4" d="M339.7,2.78H24.07A21.39,21.39,0,0,0,2.68,24.18V596.91a21.38,21.38,0,0,0,21.39,21.4H462.74a21.39,21.39,0,0,0,21.4-21.4V147.38Zm23.06,142a20.43,20.43,0,0,1-20.44-20.43V6.48l138,138.28Z" transform="translate(0 -0.01)"/><path class="cls-3" d="M480.29,144.76H362.76a20.43,20.43,0,0,1-20.44-20.43V6.48Z" transform="translate(0 -0.01)"/><path class="cls-4" d="M480.29,144.76H362.76a20.43,20.43,0,0,1-20.44-20.43V6.48Z" transform="translate(0 -0.01)"/></g></g></g><text class="cls-5" transform="translate(96.76 429.51) scale(0.94 1)">C</text><path class="cls-6" d="M393.12,525.07H93.6C77.91,451.69,182.86,444.81,190,440c0,0,53,34,108,0C305.09,444.78,409.71,451.62,393.12,525.07Z" transform="translate(0 -0.01)"/><line class="cls-7" x1="298" y1="439.99" x2="297" y2="422.99"/><line class="cls-7" x1="190" y1="439.99" x2="190" y2="421.99"/></g></g></svg>