<svg xmlns="http://www.w3.org/2000/svg" viewBox="0 0 1263.81 449.47"><defs><style>.cls-1,.cls-3{font-size:367px;fill:#f2f2f2;font-family:AvenirNext-UltraLight, Avenir Next;}.cls-1,.cls-2{stroke:#f2f2f2;stroke-miterlimit:10;}.cls-1{letter-spacing:0.02em;}.cls-2{fill:#333;stroke-width:8px;}.cls-3{letter-spacing:0.04em;}</style></defs><title>CSheet  Logo Grey White</title><g id="Layer_2" data-name="Layer 2"><g id="Layer_1-2" data-name="Layer 1"><text class="cls-1" transform="translate(8.76 313.91) scale(0.94 1)">C</text><path class="cls-2" d="M294.93,409.46h-279A11.79,11.79,0,0,1,4.09,398.38c-3-57.11,74.28-67.73,93.84-72.61a11.73,11.73,0,0,1,8.3,1c13.17,6.87,55.14,24.69,99.31.22a11.85,11.85,0,0,1,8.64-1.21c19.73,4.87,96.48,15.57,92.57,72.72A11.81,11.81,0,0,1,294.93,409.46Z"/><line class="cls-2" x1="210" y1="324.39" x2="209" y2="307.39"/><line class="cls-2" x1="102" y1="324.39" x2="102" y2="306.39"/><text class="cls-3" transform="translate(317.76 314.33) scale(0.94 1)">Sheet</text></g></g></svg>