<svg xmlns="http://www.w3.org/2000/svg" viewBox="0 0 8.4 11"><defs><style>.cls-1,.cls-2{fill:none;}.cls-1,.cls-4{stroke:#000;}.cls-1,.cls-2,.cls-3,.cls-4,.cls-5{stroke-miterlimit:10;}.cls-2,.cls-3,.cls-5{stroke:#fff;}.cls-2,.cls-3{stroke-width:0.25px;}.cls-3,.cls-5,.cls-6{fill:#fff;}.cls-4,.cls-5{stroke-width:0.5px;}</style></defs><title>Locked Padlock</title><g id="Layer_2" data-name="Layer 2"><g id="Layer_1-2" data-name="Layer 1"><path d="M1.3,10.5a.82.82,0,0,1-.8-.8V5.3A.83.83,0,0,1,1,4.58.85.85,0,0,1,1.3,4.5H7.1a1,1,0,0,1,.38.09.83.83,0,0,1,.42.71V9.7a.82.82,0,0,1-.8.8Z"/><path d="M7.1,5l.14,0a.35.35,0,0,1,.16.27V9.7a.31.31,0,0,1-.3.3H1.3A.31.31,0,0,1,1,9.7V5.3A.35.35,0,0,1,1.16,5L1.3,5H7.1m0-1H1.3a1.5,1.5,0,0,0-.59.14A1.32,1.32,0,0,0,0,5.3V9.7A1.31,1.31,0,0,0,1.3,11H7.1A1.31,1.31,0,0,0,8.4,9.7V5.3a1.32,1.32,0,0,0-.71-1.16A1.5,1.5,0,0,0,7.1,4Z"/><path class="cls-1" d="M.71,4.14c0,.18,0,.36,0,.56"/><path class="cls-1" d="M7.69,4.14A1.5,1.5,0,0,0,7.1,4H1.3a1.5,1.5,0,0,0-.59.14C.85,1.47.47.5,3.5.5H4.9C7.93.5,7.55,1.47,7.69,4.14Z"/><path class="cls-1" d="M7.7,4.7c0-.2,0-.38,0-.56"/><line class="cls-2" y1="6.1" x2="8.4" y2="6.1"/><line class="cls-2" y1="7.5" x2="8.4" y2="7.5"/><line class="cls-3" y1="8.9" x2="8.4" y2="8.9"/><rect class="cls-4" x="2.1" y="4.7" width="4.2" height="4.2"/><rect class="cls-4" x="2.1" y="6.1" width="4.2" height="4.2"/><rect class="cls-4" x="2.1" y="6.1" width="4.2" height="4.2"/><circle class="cls-5" cx="4.2" cy="6.65" r="0.52"/><rect class="cls-6" x="3.73" y="6.12" width="0.93" height="2.8"/></g></g></svg>