<svg xmlns="http://www.w3.org/2000/svg" viewBox="0 0 14.73 11"><defs><style>.cls-1,.cls-2{fill:none;}.cls-1,.cls-4{stroke:#000;}.cls-1,.cls-2,.cls-3,.cls-4,.cls-5{stroke-miterlimit:10;}.cls-2,.cls-3,.cls-5{stroke:#fff;}.cls-2,.cls-3{stroke-width:0.25px;}.cls-3,.cls-5,.cls-6{fill:#fff;}.cls-4,.cls-5{stroke-width:0.5px;}</style></defs><title>Unlocked Padlock</title><g id="Layer_2" data-name="Layer 2"><g id="Layer_1-2" data-name="Layer 1"><path d="M7.63,10.5a.82.82,0,0,1-.8-.8V5.3a.83.83,0,0,1,.45-.72.85.85,0,0,1,.35-.08h5.8a.91.91,0,0,1,.37.09.82.82,0,0,1,.43.71V9.7a.82.82,0,0,1-.8.8Z"/><path d="M13.43,5l.14,0a.35.35,0,0,1,.16.27V9.7a.31.31,0,0,1-.3.3H7.63a.31.31,0,0,1-.3-.3V5.3A.35.35,0,0,1,7.49,5l.14,0h5.8m0-1H7.63A1.46,1.46,0,0,0,7,4.14,1.32,1.32,0,0,0,6.33,5.3V9.7A1.31,1.31,0,0,0,7.63,11h5.8a1.31,1.31,0,0,0,1.3-1.3V5.3A1.33,1.33,0,0,0,14,4.14,1.41,1.41,0,0,0,13.43,4Z"/><path class="cls-1" d="M1,4a1,1,0,0,0-.49.14C.68,1.47.3.5,3.33.5h1.4c3,0,2.64,1,2.78,3.64A1,1,0,0,0,7,4"/><line class="cls-2" x1="6.33" y1="6.1" x2="14.73" y2="6.1"/><line class="cls-2" x1="6.33" y1="7.5" x2="14.73" y2="7.5"/><line class="cls-3" x1="6.33" y1="8.9" x2="14.73" y2="8.9"/><rect class="cls-4" x="8.43" y="4.7" width="4.2" height="4.2"/><rect class="cls-4" x="8.43" y="6.1" width="4.2" height="4.2"/><rect class="cls-4" x="8.43" y="6.1" width="4.2" height="4.2"/><circle class="cls-5" cx="10.53" cy="6.65" r="0.52"/><rect class="cls-6" x="10.06" y="6.12" width="0.93" height="2.8"/></g></g></svg>